<svg xmlns="http://www.w3.org/2000/svg" width="48" height="48" viewBox="0 0 48 48" fill="none">
  <defs>
    <linearGradient id="g" x1="0" y1="0" x2="48" y2="48" gradientUnits="userSpaceOnUse">
      <stop stop-color="#4a90f2"/>
      <stop offset="1" stop-color="#7b6cf0"/>
    </linearGradient>
  </defs>
  <rect x="2" y="2" width="44" height="44" rx="12" fill="url(#g)"/>
  <rect x="2.5" y="2.5" width="43" height="43" rx="11.5" fill="none" stroke="#fff" stroke-opacity="0.22"/>
  <!-- Document with a folded top-right corner -->
  <path d="M14 13.5c0-1.38 1.12-2.5 2.5-2.5h11l6.5 6.5v17c0 1.38-1.12 2.5-2.5 2.5h-15c-1.38 0-2.5-1.12-2.5-2.5v-21z" fill="#fff"/>
  <path d="M27.5 11v4.5c0 1.1.9 2 2 2H34" fill="none" stroke="#7b6cf0" stroke-width="1.6" stroke-linejoin="round" stroke-opacity="0.35"/>
  <!-- Text lines -->
  <rect x="18.5" y="22" width="11" height="2.2" rx="1.1" fill="#7b6cf0"/>
  <rect x="18.5" y="27" width="11" height="2.2" rx="1.1" fill="#4a90f2"/>
  <rect x="18.5" y="32" width="7" height="2.2" rx="1.1" fill="#9aa0ad"/>
</svg>
